<?xml version="1.0" encoding="UTF-8"?>
<svg id="Layer_1" data-name="Layer 1" xmlns="http://www.w3.org/2000/svg" viewBox="0 0 783.95 462.24">
  <defs>
    <style>
      .cls-1 {
        letter-spacing: 0em;
      }

      .cls-2 {
        letter-spacing: 0em;
      }

      .cls-3 {
        letter-spacing: 0em;
      }

      .cls-4 {
        fill: #7e1416;
      }

      .cls-5 {
        letter-spacing: 0em;
      }

      .cls-6 {
        fill: #7e0a0f;
      }

      .cls-7 {
        letter-spacing: 0em;
      }

      .cls-8 {
        letter-spacing: 0em;
      }

      .cls-9 {
        letter-spacing: 0em;
      }

      .cls-10 {
        fill: #ededed;
      }

      .cls-11 {
        letter-spacing: 0em;
      }

      .cls-12 {
        fill: #194368;
      }

      .cls-13 {
        letter-spacing: -.01em;
      }

      .cls-14 {
        letter-spacing: 0em;
      }

      .cls-15 {
        font-family: MyriadPro-Bold, 'Myriad Pro';
        font-size: 42.52px;
        font-weight: 700;
      }

      .cls-16 {
        fill: none;
        stroke: #231f20;
        stroke-miterlimit: 10;
      }
    </style>
  </defs>
  <g>
    <path class="cls-10" d="M164.69,177.6c-1.26-3.01-2.7-5.92-4.29-8.74l-.67,4.26-.08.03c-.04-.07-.08-.15-.12-.22v1.08l-.96.84-2.02.67h-1.8c.03.06.06.13.1.2-.8-.04-1.5.11-1.87.2,1.07,1.53,2.27,3.53,3.3,5.99.81,1.93,1.33,3.72,1.68,5.26.52-.17.94-.36,1.28-.57.05.17.11.33.16.5.17.04.3.07.36.07.34,0,1.8.82,1.91,1.36s.56,1.89.56,1.89v.78l1.57,1.33s.56.34.79.68c.22.34-.22-.67.22.34s1.12,1.79,1.12,1.79l.67.91v3.79s.34,1.06.67,1.32c.2.15.56.61.82.96.12,1.28.21,2.56.27,3.85l.88.82.68.55.47,1.05-.47,1.13-.59.84-.9.72c0,.3-.02.6-.03.9-.22.44-.5.92-.69.89-.34-.05-1.35,1.07-1.91,1.75s-.22.78-.79,1.34c-.56.56-.91,1.79-.91,1.79,0,0,.55.22,0,1.23-.55,1.01-.66,2.01-.66,2.01l-1.01,2.17-.34.98s0-.01-.34.77c-.34.78-.9,1.97-.9,1.97,0,0-.11.94-.34,1.61-.22.67-.45,1.13-.45,1.13v1.22l-.81,1.32-.15-.43c-.1.31-.21.63-.31.94l-1.52.42-.59-1.45-2.45-2.45-.19-.3c.55-1.55.25-3.17-.52-4.65l-1.97-3.78c-.57-1.09-.37-2.69-.77-3.93l-.87-2.69c-.6-.37-1.03-.92-1.12-1.66-.63-.5-1.23-1.11-1.61-1.85-.41-.79-.98-.98-1.61-1.59l-1.47-1.44c-.75-.73-1.21-2-2.12-2.51l-1.69-.95c-.32-.18-.69-.62-.73-.91-.13-1.14,1.38-1.42,1.53-3.42.09-1.17.87-2.16,1.22-3.19.63-1.86.71-3.78.29-5.61-.57-2.48-.01-4.3-1.64-6.6-.08-.76-.2-1.73-.48-2.45l-.67-1.7-2.59-2.74c-.77-.82-2.04-1.55-3.13-1.88-1.83-.55-3.67-.39-5.59-.13l-3.75.5-.81,1.06-1.52,1.72-.56,1.63-1.86,1.69-.68,2.75-.17,2.77.34,4.5-.9,1.72-3.02,1.27-.82.55-.65-.27c-.17-.07-.55.39-.66.55l-1.83,2.86c-.18.29-1.07.63-1.28.38l-.91-1.09c-.09-.11-.53-.29-.62-.19l-.4.46c-.71.81-1.39,1.55-1.78,2.56l-.52,1.37-1.4,3.34-.57,1.52-.36,2.16-.46,3.66-.43,2.26c-.09.46.47.96.85,1.36.28.72.56,1.76.66,2.55l.37,2.89c.12.95.43,2.18-.05,3.07l-1.59,2.99-1.18,2.31c-.44.87-1.6.51-2.29.29l-2.4-.79-3.04-1.5c-.91-.45-1.22-1.66-1.39-2.58-.07-.34-.74-.87-.92-1.16-.31-.52-.61-.93-1.06-1.36-.56-.54-.8-1.51-1-2.33-1.16-1.5-1.9-3.29-1.59-5.21.93-1.51,1.4-3.15,1.77-4.9.18-1.15.38-2.19.87-3.31l-1.62-1.69c-.85-.88-3.61-1.99-4.99-1.42l-1.22,3.36c-.23.65-.15,1.9-.43,2.49l-1.16,2.42c-.62,1.3-.33,3.5-1.04,5.02l-1.26,2.71-.98,1.95c-.09.17-.33.51-.46.65-.14.15-.52-.02-.83-.08-.67-.13-1.33.59-1.67,1.16-.56.94-1.33,1.46-2.22,1.95-.75.4-.69,1.44-.81,2.14l-.35,2.11c-.04.25-.38.75-.54.89-.84-.14-1.76-.01-2.18.97-.82-.21-1.91-.41-2.55-1.06-.66-.66-1.24-.81-2.09-1.11-1.33-.47-2.48-1.58-3.54-2.5l-1.82-1.58c-.88-.77-2.15-1.46-2.62-2.62-.66-1.62-1.55-2.95-2.54-4.36l-1.65-2.34c-.49-.7-.68-1.78-1.09-2.44-.97-1.58-1.68-3.03-2.34-4.78l-1.72-2.57c-.3-.44-.06-1.34-.17-1.82-.22-1.06-.57-2.08-.59-3.12-.02-1.14-.95-1.69-1.46-2.64l-1.15-2.13c-.92-1.71-.92-3.73-1.15-5.61-.3-.44-.76-1.22-.77-1.7-.02-1.31-.91-1.62-1.71-2.26l-1.86-1.49c-.4,1.34-.74,2.47-1.92,3.27.15,1.34-.5,2.52-1.46,3.41,0,.82-.17,1.48-.48,2.22l-.75,1.79c-.17.42.15,1.48.03,1.92-.3,1.1-1.23,1.86-2.06,2.63l-1.56-.72c-1.48.46-2.42-.28-3.45-1.06l-1.74-1.3.35-.87s-.39-1.07-.34-1.35c.06-.28-.73-1.18-.73-1.18v-4.11l1.07-2.59v-2.42l.23-2.82.39-1.24.17-2.82-.56-4.05.39-1.31-.39-2.23-.23-1.8v-2.76s.51-1.91.51-2.14.56-2.08.56-2.08c0,0,1.24-1.86,1.52-1.91.1-.02.07-.69-.01-1.57l.23-.49v-.04c-.08.1-.16.21-.25.32-.02-.17-.03-.35-.05-.53.15-.17.29-.35.44-.52l-.38-3.68c-6.37,7-11.45,14.95-15.13,23.7-4.3,10.23-6.48,21.09-6.48,32.29,0,9.93,1.72,19.59,5.1,28.78l2.03.39,1.26.76.08.05s0-.02-.01-.03l1.9,1.32s1.35,1.32,1.69,1.88c.34.56.67,1.48.67,1.48l.84,1.68,1.43,1.43,1.57.92s.37.92.79,1.43.76.59.93,1.18c.17.59.51,2.1.51,2.1v1.09l1.27,1.76,1.52,1.76,2.7,2.1,1.27.84,1.43,2.01-.08,2.27.59.92,2.62,1.85,1.01,1.6.59,1.85.2.65c-.06-.05-.13-.1-.19-.15l.18.6-.5,1.85s-.09.23-.33.53c2.01,1.61,4.08,3.13,6.22,4.54l.15-.2v-2.36c.06.04.11.08.17.12v-.2l1.52-.84,3.04.42,1.86,1.01,1.43.92,3.71.76v.59s3.37.59,3.8,0c.09-.13.2-.27.32-.4.06.03.12.05.19.08.16-.17.27-.28.27-.28l1.52-2.2s.51-.93,1.01-.76c.51.17.34.51.76,1.44.42.93.76,1.94.76,1.94l1.01,1.6s.13.12.33.3c.58.18,1.17.36,1.75.53,0,0,0,0,.01.01.76.76.84,2.01.84,2.01l1.27,2.01.51,2.01.04.05c-.11-.03-.23-.05-.34-.08v.03s1.1,1.51,1.1,1.51l1.49,1.81c5.44,1.12,11,1.69,16.64,1.69,11.13,0,21.93-2.19,32.1-6.52,9.82-4.18,18.63-10.16,26.2-17.78,7.57-7.62,13.51-16.49,17.66-26.37,4.3-10.23,6.48-21.09,6.48-32.29s-2.18-22.06-6.48-32.29Z"/>
    <g>
      <path class="cls-6" d="M134.14,185.99c.53,1.08,1.18,1.73,2.02,2.58l1.69,1.69,1.84,2.03c1.07-3.84.42-7.37-1.26-10.68-.42-.83-.7-1.55-1.43-2.17-2.16-1.82-4.76-2.97-7.63-2.68l-2.21.22,2.73,3.71c1.33,1.81,3.25,3.22,4.26,5.29Z"/>
      <path class="cls-6" d="M73.37,227.39l.02,2.87c1.16-.51,2.2-1.01,2.73-1.96.37-.65.24-2.34,0-3.56-1.02.81-2.04,1.64-2.75,2.65Z"/>
      <polygon class="cls-6" points="75.42 255.9 77.9 256.28 74.74 250.84 75.42 255.9"/>
      <path class="cls-6" d="M47.6,208.15l-1.76-1.16c-.84-.56-.17-1.67-.08-2.35.04-2.41.3-3.46-1.71-4.3-.73-.31-1.04-.7-1.04-1.5,0-.71-.33-1.32-.61-1.95-1.43-3.17.19-6.21-2.56-8.18-.58,1.14-1.05,1.85-2.05,2.43-.13,1.35-.01,2.96.44,4.37.23.73,1.26,1.19,1.69,1.82.4.58.32,1.61.48,2.28.29,1.16.41,2.05.11,3.22-.22.87-.01,1.86.24,2.73-.81.83-1.3,2.23-.48,3.21l1.7.92c-.22.99-2.07.5-2.05,1.95l.04,2.89c1.95-.46,3.04-1.36,4.39-2.42l3.39-2.68c.15-.12.38-.6.29-.77-.07-.14-.32-.4-.46-.49Z"/>
      <path class="cls-6" d="M137.37,195.56l-2.93-1.79c-2.19-1.34-3.02-1.74-4.13-4.42-.18-.43-.4-1.04-.73-1.24-1.1-.64-1.5-1.55-1.26-2.84l-1.33-1.06-.78-2.22c-.12-.35-.92-.59-1.41-.61l.1,5.22c.33,5.87.89,11.54,2.1,17.49,4.04-1.75,8.33-4.64,10.38-8.53Z"/>
      <path class="cls-6" d="M145.61,214.06c-.09-1.16-.91-2.21-1.45-3.23-1.38-2.61-3.13-5.05-5.96-6.13l-4.35,1.79-6.62,2.83c.18,2.73.8,5.43.74,8.12-.06,2.52-.07,4.88.32,7.4l1.25,8.01c.36,2.31.61,4.55,1.71,6.72,3.81-.82,10.25-5.44,12.31-8.21,2.15-2.89,3.07-6.47,3.1-10.06,0-.98-.65-2.02-.72-2.96l-.33-4.27Z"/>
    </g>
    <path class="cls-6" d="M158.17,187.14c.52-.17.94-.36,1.28-.57-1.18-3.76-2.66-7.4-4.39-10.88-.8-.04-1.5.11-1.87.2,1.07,1.53,2.27,3.53,3.3,5.99.81,1.93,1.33,3.72,1.68,5.26Z"/>
    <g>
      <path class="cls-6" d="M23.37,239.41c2.62.77,5.65.33,8.12-.71,1.27-.53,2.01-2.24,2.19-3.5.46-3.21.05-6.2-.35-9.41-.91-7.2-2.03-14.21-3.68-21.31-.22-.04-.46-.08-.69-.14l-.06.04-.4-.18c-.2-.07-.4-.15-.57-.25l-.97-.42-1.77-1.86v-1.44l-1.14-1.86-1.03-1.18s-.19-1.77-.44-1.86c-.25-.08-.59-.93-.59-.93v-1.6s.76-1.27.76-1.86v-3.13l.65-2.36.65-2.87v-1.52l-.65-1.18-.65-1.1.68-1.35.26-4.3c-6.44,11.17-9.88,23.87-9.88,37.11,0,8.09,1.28,15.99,3.75,23.45.86,1.91,2.34,4.07,4.89,5.31.2.1.53.26.96.42v-.03Z"/>
      <path class="cls-6" d="M157.52,233.28l-.59-1.45-2.45-2.45-.29-.45c-.12.33-.27.66-.47.98l-2.09,3.36c-1.1,1.77-2.47,3.27-4.22,4.42-6.28,4.15-10.03,6.56-17.43,8.7l-6.63,1.92-6.19.98c-3.99.28-7.81.1-11.98-.25l7.97,7.66,5.6,5.51-31.08-5.1,8.27,9.07-20.59-4.14.57,4.68c.24,1.95-.29,3.82-1.27,5.62l-1.61-3.62-.99-1.72c-1.08-1.88-1.23-4.01-1.67-6.22l-9.84-1.62-15.14-2.64c7.98-1.24,15.94-1.66,24.2-1.29l-.05-3.8,1.41-.91.07-3.28,1.52-.78c.13.44.51,1.21.92,1.47,5,.03,9.68.76,14.52,1.76l7.08,1.47-6.69-9.8,11.53,2.03-2.46-2.82c-.49-.56-1.06-1.45-1.25-2.15.23-1.35.81-2.69,1.83-3.55,1.85,0,3.6.29,5.32.74.05,1.26-.33,2.52,0,3.57l1.47,4.52,3.84.25c3.24.21,6.35-.08,9.52-.66.76-.14,1.38-.7,1.55-1.48.59-2.8.46-5.56.06-8.39l-.58-4.13-.9-13.27-.88-12.43c-.18-2.48-.51-4.73-1.56-7.13-.67.33-1.74.84-2.15,1.34l-1.8,3.12c-.82-.44-1.4-1.04-1.92-1.83l-1.54.54c-.43.15-.28,1.36-.53,1.75l-1.23,1.92-1.22,2.92c-.39.94-.76,1.84-.83,2.91l-.2,2.94c-.87,1.09-.68,2.59.63,3.48l-.22,2.23c.82,1.6,1.26,3.15,1.72,4.86.89,3.3-.95,2.82-1.43,4.2l-.72,2.05c-.34.98-.85,1.68-1.73,2.2-1.05.61-1.99.54-3.07.07l-2.58-1.14c-.99-.44-2.29-.71-3.13-1.39-1.46-1.18-2.19-2.88-2.85-4.63l-1.61-1.16-.8-2.1c-.33-.5-.51-.91-.73-1.46l-1.13-2.8c-.98-2.43,1.71-1.66,2.21-4.82l.62-3.89c.09-.58-.47-1.76-.99-1.91-1.28-.26-2.51-.11-3.77.16-.16,1.22-.62,2.56-.46,3.67.12.83.05,1.39.11,2.22l.7,9.82c.32,4.45,1.78,5.37,5.7,7.74.14.61.18,1.29.15,2.02l-6.75.89-5.05.59c-2.01.24-3.95.64-5.93,1.23.47,3.01.71,5.62.3,8.47-1.64,1.27-2.17,1.95-4.24,1.23-.49-2.19-1.17-4.13-1.98-6.21l-1.38-3.54-3.27-1.3c-1.6-.64-2.91-1.88-4.21-3.05-.64-.57-1.14-1.58-1.81-2.07-.8-.59-1.04-1.11-1.39-2.02-.63-1.61-1.91-2.9-2.99-4.25-3.05-3.8-6.73-5.39-11.55-3.63l.5,7.18c.14,2.07.39,4.04.76,6.1.3,1.69,1.21,3.35,2.82,4.12l1.8.51,1.25,2.8-3.33,1.04c-1.68.53-3.24,1.32-4.99,1.64l-5.16.93-5.39,1.12c-1.94.4-3.82.74-5.61,1.88v-.02s-.78.44-.78.44c3.4,6.29,7.73,12.12,12.92,17.31,7.1,7.1,15.37,12.58,24.39,16.28.16-.17.27-.28.27-.28l1.52-2.2s.51-.93,1.01-.76c.51.17.34.51.76,1.44s.76,1.94.76,1.94l1.01,1.6s.13.12.33.3c7.21,2.29,14.81,3.48,22.59,3.48,19.89,0,38.58-7.74,52.64-21.8,8.57-8.57,14.78-18.85,18.34-30.08l-1.68.46Z"/>
    </g>
    <g>
      <path class="cls-6" d="M14.88,239.78l.08.05c-3.72-9.27-5.77-19.39-5.77-29.98,0-19.96,7.28-38.25,19.3-52.31l-.38-3.68c-6.37,7-11.45,14.95-15.13,23.7-4.3,10.23-6.48,21.09-6.48,32.29,0,9.93,1.72,19.59,5.1,28.78l2.03.39,1.26.76Z"/>
      <path class="cls-6" d="M164.9,177.56c-1.26-3.01-2.7-5.92-4.29-8.74l-.67,4.26-.1.04c5.12,9.97,8.21,21.16,8.75,33l.88.82.68.55.47,1.05-.47,1.13-.59.84-.9.72c-.74,43.63-36.22,78.9-79.73,78.9-6.63,0-13.07-.82-19.24-2.37v.03s1.1,1.51,1.1,1.51l1.49,1.81c5.44,1.12,11,1.69,16.64,1.69,11.13,0,21.93-2.19,32.1-6.52,9.82-4.18,18.63-10.16,26.2-17.78,7.57-7.62,13.51-16.49,17.66-26.37,4.3-10.23,6.48-21.09,6.48-32.29s-2.18-22.06-6.48-32.29Z"/>
      <path class="cls-6" d="M43.93,276.64l.43-.24c-2.13-1.45-4.18-3-6.15-4.64l.18.6-.5,1.85s-.09.23-.33.53c2.01,1.61,4.08,3.13,6.22,4.54l.15-.2v-2.43Z"/>
    </g>
  </g>
  <g>
    <path class="cls-12" d="M358.97,235.72c-3.15,2.02-6.11,3.04-8.18,3.57,1.78.58,4.37,1.56,7.3,3.18,2.01,1.11,3.03,1.68,3.81,2.62,3.11,3.75,1.2,10.08,1.27,10.08.38.04,1.75-14.77,1.75-14.77.44-4.74.8-8.59,1.03-11.04-1.37,1.74-3.62,4.19-6.99,6.35Z"/>
    <path class="cls-12" d="M222.01,235.01c-1.48.94-4.68,3.26-6.67,7.54-3.01,6.5-.95,12.59-.48,13.89-1.14-1.19-2.74-3.17-3.65-5.95-1.51-4.64.03-8.1.79-15.48.25-2.4.5-5.97.32-10.4,1.78,1.69,3.62,3.54,5.48,5.56,1.51,1.65,2.92,3.27,4.21,4.84Z"/>
    <path class="cls-16" d="M266.87,282.41c.63,2.71.43,3.27.28,3.57-.09.18-.42.83-.93.87-.58.04-1.1-.71-1.29-1.27-.17-.48-.12-.88-.04-1.55.12-.99.34-.99.36-1.79,0-.51-.08-.77.12-1.07.16-.25.49-.5.77-.44.3.06.45.45.74,1.67Z"/>
    <path class="cls-12" d="M356.51,162.04c-7.09,2.23-13.81,3.92-20.05,5.2,2.34,3.86,2.81,7.18,1.55,8.22-.25.2-.96.65-2.74.12.38.32,5.13,4.45,4.23,9.47-.46,2.55-2.22,4.43-3.22,5.48-1.76,1.87-3.64,2.89-4.86,3.43-.98,5.39-3.68,15.65-11.99,24.69-3.36,3.66-7.73,8.41-14.93,11.12-4.98,1.87-8.46,1.69-12.67,4.83-3.82,2.85-5.84,6.63-6.94,9.34-1.99-5.16-4.65-8.48-6.99-10.68-2.59-2.43-4.23-3.07-8.97-6.27-.79-.53-6.32-4.28-9.85-7.86-7.08-7.17-8.77-16.33-9.53-20.41-.7-3.8-2.11-11.97,1.27-21.44,1.73-4.84,4.14-8.42,5.95-10.72-5.27-.13-11.9-.76-19.35-2.6-7-1.73-12.84-4.06-17.39-6.25-.04.5-.52,5.56-3.51,6.67-1.45.53-3.05,0-6.19-1.07-1.56-.53-2.8-1.09-3.63-1.49-.32.89-.64,1.79-.95,2.68,3.51,2.65,6.47,3.37,8.57,3.51,2.53.18,4.18-.45,7.09.54,1.04.35,2.8.98,4.29,2.68.44.5,2.11,2.41,2.08,4.94-.01,1.27-.45,2.4-3.87,6.79-1.13,1.45-2.63,3.3-4.47,5.42,2.01,1.08,4.79,2.77,7.74,5.3,3.28,2.82,5.38,4.62,5,6.49-.58,2.85-6.49,3.87-7.5,4.05-1.16.2-2.01.19-2.8.06-1.93-.32-3.27-1.33-3.93-1.91.2.85,1.21,5.44-1.61,9.41-1.16,1.63-2.57,2.6-3.55,3.14,2.27,4.34,6.14,10.37,12.54,15.94,2.47,2.15,9.28,7.95,19.53,10.9,4.07,1.17,8.76,1.91,15.72,3.02,4.67.74,9.35,1.36,13.82,4.61,2.93,2.13,3.9,4.03,4.16,5.64,0,0,.32,1.94-.67,4.21-1.13,2.59-6.01,8.41-13.51,16.26.53.82.98,1.75,1.36,2.52.29.6.66,1.48.32,1.87-.36.4-1.12-.14-1.83.32-.69.45-.41,1.27-1.03,1.59-.65.33-1.18-.47-2.1-.2-.5.15-.37.39-1.35,1.11-.86.63-1.31.71-1.39,1.15-.06.34.13.75.4.83.47.15,1.18-.76,1.43-1.07.45-.57.51-.89.87-.99.4-.11.78.15.91.24.44.29.79.88.67,1.39-.11.47-.55.53-.56.95,0,.29.2.5.48.79.6.63,1.14.7,1.15,1.03,0,.19-.17.4-.36.48-.51.2-.92-.63-1.75-.75-.58-.09-.71.28-1.98.83-1.08.47-1.93.84-2.9.64-.46-.09-.51-.23-1.51-.52-.62-.18-1.09-.27-1.35-.32-.39-.08-.74-.14-1.07-.21-1.59,1.55-3.23,3.14-4.92,4.77,4.82,3.55,9.63,7.09,14.45,10.64,5.41-10.02,10.82-20.03,16.24-30.05-2.92,11.23-5.85,22.47-8.77,33.7,3.33,1.8,6.67,3.6,10,5.4,3.86-1.11,7.73-2.22,11.59-3.33-.16-.82-.32-1.63-.48-2.45-1.01.92-2.13,1.62-3.05,1.99-.84.34-1.86.55-3.37,1.43-.84.49-1.27.86-2.23,1.15-.84.25-1.54.26-2.26.28-.94.03-1.3-.08-1.55-.18-.3-.12-.82-.33-1.07-.83-.18-.37-.16-.79-.12-1.37.04-.56.13-.73,0-.95-.17-.28-.44-.22-.83-.48-.39-.26-.56-.62-.77-1.07-.11-.24-.68-1.45-.3-1.79.31-.27.96.29,1.31,0,.34-.28-.12-.95.24-1.37.18-.21.37-.15,1.61-.3,0,0,.6-.07,1.25-.18.52-.08.95-.16,1.49-.3.94-.25,1.42-.38,1.79-.77.13-.14.26-.41.54-.95.34-.68.51-1.02.54-1.25.09-.8-.42-1.48-.66-1.79-.34-.45-.44-.37-.89-.89-.39-.45-1.05-1.22-.83-1.79.17-.46.77-.4.83-.77.07-.4-.59-.58-1.07-1.37-.44-.73-.6-1.75-.18-2.2.12-.13.19-.1.6-.3.61-.29.94-.59,1.19-.77.74-.54,1.31-.43,2.26-.76.99-.35,1.5-.86,1.87-1.24-.99-5.08-1.99-10.17-2.98-15.25,5.45,11.12,10.9,22.23,16.36,33.35,6.07-3.04,12.15-6.09,18.22-9.13-16.88-18.83-28.86-33.14-31.08-37.08-.41-.73-1.32-2.39-1.11-4.45.08-.81.45-2.83,3.26-5.4,3.58-3.28,7.75-4.35,10.24-4.92,7.59-1.74,12.04-1.68,18.1-2.36,0,0,7.63-.87,15.56-3.03,6.58-1.8,20.38-5.56,30.33-17.31,7.4-8.74,9.66-18.33,10.64-22.71.67-2.98,1.45-11.25,3.02-27.79.3-3.12.85-9.04,4.45-15.4,1.36-2.4,2.78-4.21,3.81-5.4-8.36,4.16-18.23,8.35-29.54,11.91Z"/>
    <path class="cls-12" d="M306.16,159.73c-.11.06-.22.13-.31.24-.2.25-.18.48-.24.79-.19,1.05-.97,1.85-1.56,2.35-.56.2-1.4.61-2.09,1.31-.3.3-.89.9-1.11,1.83-.18.76.09.89-.08,1.98-.1.61-.22,1.34-.79,1.83-.11.09-.34.19-.79.4-1.19.53-1.78.79-2.22.79-.33,0-.7-.06-.83.14-.09.14.01.26-.05.42-.13.34-.91.57-1.35.32-.8-.45-.35-2.37-.79-2.46-.09-.02-.3.15-.71.48-.23.18-.42.35-.48.4-.86.79-2.12,4.22-3.18,4.21-.46,0-.91-.66-.95-1.19-.05-.71.66-.92.71-1.75.04-.58-.3-.61-.64-1.67-.21-.67-.25-1.21-.32-2.22-.06-.88,0-.92-.08-1.51-.1-.69-.17-1.21-.48-1.75-.33-.58-.51-.45-1.51-1.59-.52-.59-.68-.87-.79-1.19-.11-.31-.12-.58-.16-1.11-.03-.44,0-.61,0-1.59,0-.44,0-.77,0-.79,0-.85-.64-1.69-1.14-2.37-15.85,2.69-27.92,16.48-27.92,33.1s11.5,29.76,26.79,32.9c2.26-11.41,4.53-22.83,6.79-34.24.88,11.61,1.75,23.21,2.63,34.82,17.32-1.34,30.96-15.81,30.96-33.47,0-12.64-6.99-23.65-17.32-29.38ZM266.63,194.99c-1.09-.57-3.01-1.76-4.61-3.97-2.26-3.14-2.45-6.38-2.46-7.62,7.91-1.75,15.83-3.49,23.74-5.24-5.56,5.61-11.12,11.22-16.67,16.83ZM321.02,192.85c.12.55.48.63.48,1.11,0,.42-.28.45-.48,1.03-.28.82.09,1.3-.24,1.59-.19.17-.45.14-.95.08-.76-.09-.9-.32-1.51-.4-.26-.03-.36,0-1.43.16-1.58.24-1.46.2-1.59.24-1.06.3-1.8,1.11-2.15,1.54.06-.06.11-.11.15-.16.06-.06.1-.11.1-.11,0,0-.04.04-.1.11-.07.08-.16.18-.24.27-.08.11-.13.18-.14.17,0,0,.06-.08.14-.17.03-.03.06-.07.09-.12-.2.21-.51.52-.86.84-.68.61-.92.69-1.11.71-.28.04-.79,0-.79,0,0,0-.88-.44-1.27-.72-.75-.54-1.52-1.76-1.43-2.93.02-.33.12-.73-.12-1.11-.14-.23-.3-.28-.59-.48-.62-.43-.98-.96-1.2-1.27-.32-.47-.35-.7-.79-1.23-.02-.03-.15-.18-.32-.36-.74-.77-1.38-.89-1.83-1.43-.54-.66-.36-.81-1.27-2.3-.58-.95-.89-1.28-1.03-1.43-.6-.61-.75-.5-1.27-1.03-.64-.66-.49-.93-1.27-1.98-.18-.24-.57-.77-1.19-1.35-.84-.79-1.13-.75-1.43-1.27-.41-.73-.4-1.75,0-1.98.2-.12.44-.01.87.16.71.28,1.44.5,2.14.79.69.29,2.27.95,3.57.4.43-.18.84-.65,1.67-1.59.69-.78.87-1.17,1.74-2.06.3-.31.27-.25.8-.79.76-.77.87-.93,1.19-1.11.45-.26,1.19-.5,1.43-.24.15.17.05.48-.16,1.03-.58,1.53-.54,1.94-.95,2.22-.18.12-.18.06-.48.24-.39.23-.92.55-1.06,1.04-.15.57.34,1,.1,1.26-.09.1-.16.05-.56.16-.43.12-.7.19-.75.36-.09.25.35.61.91,1.07.45.37.68.56,1.03.64.28.06.34,0,.95,0,.84,0,.94.14,1.19.01.4-.2.52-.73.62-1.21.14-.66.1-1.29.06-1.58-.03.33-.03.55-.04.54-.03,0-.03-.71,0-.71,0,0,.03.06.04.17.04-.36.12-.86.35-1.36.29-.63.7-.99,1.27-1.51,1.09-.98,1.32-.74,2.06-1.51.8-.84.79-1.41,1.51-1.67.33-.12.64-.08,1.27,0,1.08.14,1.94.25,2.7.87.35.29.63.75,1.19,1.67.47.77.71,1.16.79,1.51.2.8,0,1.46-.4,2.78-.32,1.08-.49,1.61-.79,1.91-.98.94-2.63.52-2.7.95-.04.21.34.27.71.79.42.6.24.96.56,1.67.28.62.53.6,1.19,1.43.56.71.63,1.03,1.11,1.83.36.6.94,1.41,1.83,2.3-.11.1-.27.23-.48.23-.32,0-.46-.28-.63-.23-.26.07-.39.82-.24,1.51Z"/>
    <g>
      <path class="cls-4" d="M356.51,161.92c-1.48.47-2.94.9-4.39,1.32-.17.88-.52,1.66-.3,3.08.17,1.07.43.97,1.35,3.41.44,1.15.92,2.44,1.27,4.13.35,1.7.37,2.86.4,4.68.03,2.06-.14,2.81-.64,3.41-.24.3-.3.24-1.43,1.03-1.46,1.02-2.19,1.55-2.54,2.22-.26.51-.09.54-.32,2.14-.29,2-.57,2.05-.71,3.57-.12,1.28.07,1.32-.08,2.78-.12,1.14-.19,1.82-.56,2.62-.53,1.16-1.62,2.41-2.38,2.22-.41-.1-.47-.55-.87-.56-.31,0-.59.26-.79.52,0,.01,0,.03,0,.04-.09.25-.32.46-.32.46,0,0,.13-.25.32-.5.21-.75-1.09-1.39-2.07-3.14-.57-1.01-.57-1.59-1.11-1.75-.14-.04-.37-.07-1.51.48-1.15.55-1.72.83-1.91,1.19-.37.73.02,1.62.4,2.46.68,1.52,1.29,1.42,1.51,2.46.27,1.25-.48,2.03.08,2.7.33.39.68.24,1.03.71.42.57.3,1.33.24,1.67-.04.25-.19,1.06-.87,1.67-1.13,1-2.71.56-3.02.48-.22-.06-1.86-.54-1.98-1.51-.08-.67.65-.82,1.03-2.06.09-.3.35-1.19,0-2.14-.12-.32-.41-1.1-1.04-1.27-.65-.18-1.35.37-1.98.87-.86.68-.95,1.11-1.35,1.11-.62,0-.81-1.02-1.51-1.75-.19-.2-.41-.35-.62-.47-1.68,5.37-4.74,12.12-10.41,18.29-3.36,3.66-7.73,8.41-14.93,11.12-4.98,1.87-8.46,1.69-12.67,4.83-3.82,2.85-5.84,6.63-6.94,9.34-1.99-5.16-4.65-8.48-6.99-10.68-2.59-2.43-4.23-3.07-8.97-6.27-.79-.53-6.32-4.28-9.85-7.86-7.08-7.17-8.77-16.33-9.53-20.41-.7-3.8-2.11-11.97,1.27-21.44,1.73-4.84,4.14-8.42,5.95-10.72-1.46-.04-3.04-.12-4.7-.25-.23.84-.27,1.15-.66,1.52-.75.72-1.54.49-1.97,1.31-.22.43-.06.58-.3,1.19-.32.81-.89,1.29-1.13,1.49-1.06.87-1.64.43-2.38,1.19-.43.44-.24.59-.95,1.73-.41.66-.92,1.46-1.25,1.37-.4-.11-.02-1.37-.71-1.91-.58-.44-1.7-.24-2.02.3-.25.42.11.85-.18,1.19-.26.31-.86.29-1.25.18-.7-.2-.71-.7-1.91-1.91-.49-.49-.69-.61-1.01-1.07-.26-.37-.56-.8-.6-1.37-.03-.43.12-.46.24-1.13.09-.51.23-1.33-.18-2.02-.06-.1-.42-.71-.77-.66-.38.06-.3.83-1.01,2.02-.33.56-.53.9-.95,1.13-.28.15-.52.19-.89.48-.08.06-.31.25-.54.54-.24.31-.63.82-.6,1.49.03.57.36,1.28.89,1.43.38.11.51-.16.89-.06.49.13.76.68,1.07,1.38.27.59.39,1.06.48,1.42.28,1.14.42,1.71.3,2.44-.07.42-.19.62-.06.89.2.43.68.32,1.01.71.54.64.06,1.89.12,1.91.05,0,.25-.78.3-.77.07.01-.48,1.56.18,2.26.2.21.32.14.66.42.45.36.64.8.83,1.25.99,2.27,1.18,2.65.95,2.98-.19.26-.43.17-.6.48-.26.47.08,1.12.3,1.55.39.77.99,1.35,1.13,1.49.27.26.43.36.6.66.09.17.34.6.24,1.07-.1.44-.39.45-.54.95-.09.3-.05.54,0,.89.1.68.35,1.18.42,1.31.54,1.04,1.1,1.06,1.31,1.91.09.36.07.69.06.83-.04.68-.28.83-.3,1.25-.04.8.79.9.89,1.73.07.54-.28.59-1.13,2.38-.35.74-.39.95-.71,1.43-.38.57-.79.97-1.01,1.19-.82.81-1.15.81-1.37,1.37-.11.29-.09.44-.3.89-.19.42-.29.63-.48.77-.49.37-1-.09-1.61.18-.46.21-.43.59-.89,1.25-.77,1.08-1.39.79-2.02,1.67-.75,1.05-.05,1.74-.83,2.56-.47.49-1.45,1.01-2.26.77-.31-.09-.54-.28-.83-.18-.27.09-.35.33-.6.77-.23.43.04-.14-1.13,1.73-.55.89-.49.82-.6.95-.55.72-.79.67-1.25,1.33-.14.2-.4.6-.66,1.11-.25.49-.31.73-.54.79-.25.08-.41-.14-.89-.32-.35-.13-.62-.15-1.07-.18-1.37-.09-1.65.49-2.38.24-.24-.08-.15-.12-1.25-1.19-.39-.38-.64-.6-.8-.77,2.04,2.72,4.59,5.59,7.76,8.35,2.47,2.15,9.28,7.95,19.53,10.9,4.07,1.17,8.76,1.91,15.72,3.02,4.67.74,9.35,1.36,13.82,4.61,2.93,2.13,3.9,4.03,4.16,5.64,0,0,.32,1.94-.67,4.21-1.13,2.59-6.01,8.41-13.51,16.26.53.82.98,1.75,1.36,2.52.29.6.66,1.48.32,1.87-.36.4-1.12-.14-1.83.32-.69.45-.41,1.27-1.03,1.59-.65.33-1.18-.47-2.1-.2-.5.15-.37.39-1.35,1.11-.86.63-1.31.71-1.39,1.15-.06.34.13.75.4.83.47.15,1.18-.76,1.43-1.07.45-.57.51-.89.87-.99.4-.11.78.15.91.24.44.29.79.88.67,1.39-.11.47-.55.53-.56.95,0,.29.2.5.48.79.6.63,1.14.7,1.15,1.03,0,.19-.17.4-.36.48-.51.2-.92-.63-1.75-.75-.58-.09-.71.28-1.98.83-1.08.47-1.93.84-2.9.64-.46-.09-.51-.23-1.51-.52-.62-.18-1.09-.27-1.35-.32-.39-.08-.74-.14-1.07-.21-1.59,1.55-3.23,3.14-4.92,4.77,4.82,3.55,9.63,7.09,14.45,10.64,5.41-10.02,10.82-20.03,16.24-30.05-2.92,11.23-5.85,22.47-8.77,33.7,3.33,1.8,6.67,3.6,10,5.4,3.86-1.11,7.73-2.22,11.59-3.33-.16-.82-.32-1.63-.48-2.45-1.01.92-2.13,1.62-3.05,1.99-.84.34-1.86.55-3.37,1.43-.84.49-1.27.86-2.23,1.15-.84.25-1.54.26-2.26.28-.94.03-1.3-.08-1.55-.18-.3-.12-.82-.33-1.07-.83-.18-.37-.16-.79-.12-1.37.04-.56.13-.73,0-.95-.17-.28-.44-.22-.83-.48-.39-.26-.56-.62-.77-1.07-.11-.24-.68-1.45-.3-1.79.31-.27.96.29,1.31,0,.34-.28-.12-.95.24-1.37.18-.21.37-.15,1.61-.3,0,0,.6-.07,1.25-.18.52-.08.95-.16,1.49-.3.94-.25,1.42-.38,1.79-.77.13-.14.26-.41.54-.95.34-.68.51-1.02.54-1.25.09-.8-.42-1.48-.66-1.79-.34-.45-.44-.37-.89-.89-.39-.45-1.05-1.22-.83-1.79.17-.46.77-.4.83-.77.07-.4-.59-.58-1.07-1.37-.44-.73-.6-1.75-.18-2.2.12-.13.19-.1.6-.3.61-.29.94-.59,1.19-.77.74-.54,1.31-.43,2.26-.76.99-.35,1.5-.86,1.87-1.24-.99-5.08-1.99-10.17-2.98-15.25,5.45,11.12,10.9,22.23,16.36,33.35,6.07-3.04,12.15-6.09,18.22-9.13-16.88-18.83-28.86-33.14-31.08-37.08-.41-.73-1.32-2.39-1.11-4.45.08-.81.45-2.83,3.26-5.4,3.58-3.28,7.75-4.35,10.24-4.92,7.59-1.74,12.04-1.68,18.1-2.36,0,0,7.63-.87,15.56-3.03,1.92-.53,4.47-1.22,7.35-2.23-.04-.17-.07-.36-.13-.58-.31-1.37-.5-1.7-.79-1.91-.31-.22-.43-.09-.95-.32-.62-.27-1.42-.89-1.35-1.43.06-.4.55-.35,1-.98.45-.62.59-1.51.27-1.8-.25-.22-.65.04-.82-.17-.21-.27.27-.97.42-1.18.17-.24.95-1.37,1.59-1.19.37.1.31.52.64.64.81.29,2.8-1.76,2.46-3.18-.06-.26-.19-.46-.4-1.19-.19-.69-.28-1.03-.16-1.19.27-.34.96.18,2.22.08.55-.05.95-.19,1.75-.48.76-.27,1.14-.41,1.51-.71.24-.19,1.11-.91.95-1.75-.11-.56-.61-.86-.64-.87-.65-.38-1.1.13-2.06-.08-.13-.03-1.28-.3-1.51-1.11-.18-.65.3-1.31.4-1.43.42-.54.83-.49.87-.79.1-.64-1.58-1.29-1.43-1.83.05-.18.28-.19.38-.51.09-.27-.03-.41.02-.61.1-.36.65-.49,1.19-.64.73-.2,1.45-.45,1.91-.64.31-.13,1.1-.48,1.91-1.19.71-.63.84-1.02.87-1.17.03-.1.14-.6-.08-1.13-.2-.48-.47-.5-1.19-1.19-.62-.59-.94-.92-1.03-1.43-.1-.58.17-1.07.24-1.19.2-.35.42-.47,1.34-1.08.69-.46,1.03-.69,1.41-.97.44-.32.89-.66,1.42-1.15.79-.73.94-1.07,1.15-1.01.44.13.33,1.75.32,1.91-.08,1.08-.45,2.03-.56,2.3-.33.84-.54.96-.48,1.35.1.63.68.66,1.19,1.43.69,1.04.27,1.97.71,2.14.46.18,1.3-.68,1.75-1.43.55-.9.34-1.33.95-2.46.37-.68.73-1.36,1.19-1.35.87.02,1.48,2.49,1.51,2.62.17.7.32,1.83.32,1.83,0,0,2.54.66,4.53.32,2.78-.48,3.07-2.69,5.16-2.7.66,0,1.25.21,1.77.51.95-2.83,1.51-5.25,1.88-6.91.67-2.98,1.45-11.25,3.02-27.79.3-3.12.85-9.04,4.45-15.4,1.36-2.4,2.78-4.21,3.81-5.4-8.36,4.16-18.23,8.35-29.54,11.91Z"/>
      <path class="cls-4" d="M217.3,221.91c-.08-.52.22-1.07.54-1.37.24-.23.34-.19.6-.42.28-.25.4-.52.66-1.19.45-1.18.46-1.38.71-1.91.14-.3.32-.66.6-1.01.96-1.22,2.52-1.56,2.5-1.61-.01-.03-.71.2-.71.18-.01-.03,1.68-.29,2.02-1.25.1-.29.05-.54.3-1.01.17-.33.29-.4.3-.6,0-.36-.36-.74-.77-.89-.45-.16-.73.04-1.97.3-.78.16-.66.08-1.01.18-.85.24-1.01.57-2.26,1.25-.69.38-1.04.57-1.49.66-.61.12-1.19.06-1.73,0-.23-.02-.38-.05-.51-.07-.81.77-1.63,1.31-2.27,1.66,1.1,2.11,2.59,4.63,4.56,7.29-.03-.06-.05-.12-.06-.19Z"/>
    </g>
    <path class="cls-4" d="M320.18,174.58c-.2.32-.38.6-.57.86.13.21.28.45.45.73.47.77.71,1.16.79,1.51.2.8,0,1.46-.4,2.78-.32,1.08-.49,1.61-.79,1.91-.98.94-2.63.52-2.7.95-.04.21.34.27.71.79.42.6.24.96.56,1.67.28.62.53.6,1.19,1.43.56.71.63,1.03,1.11,1.83.36.6.94,1.41,1.83,2.3-.11.1-.27.23-.48.23-.32,0-.46-.28-.63-.23-.26.07-.39.82-.24,1.51.12.55.48.63.48,1.11,0,.42-.28.45-.48,1.03-.28.82.09,1.3-.24,1.59-.19.17-.45.14-.95.08-.76-.09-.9-.32-1.51-.4-.26-.03-.36,0-1.43.16-1.58.24-1.46.2-1.59.24-1.06.3-1.8,1.11-2.15,1.54.06-.06.11-.11.15-.16.06-.06.1-.11.1-.11,0,0-.04.04-.1.11-.07.08-.16.18-.24.27-.08.11-.13.18-.14.17,0,0,.06-.08.14-.17.03-.03.06-.07.09-.12-.2.21-.51.52-.86.84-.68.61-.92.69-1.11.71-.28.04-.79,0-.79,0,0,0-.88-.44-1.27-.72-.75-.54-1.52-1.76-1.43-2.93.02-.33.12-.73-.12-1.11-.14-.23-.3-.28-.59-.48-.62-.43-.98-.96-1.2-1.27-.32-.47-.35-.7-.79-1.23-.02-.03-.15-.18-.32-.36-.74-.77-1.38-.89-1.83-1.43-.54-.66-.36-.81-1.27-2.3-.58-.95-.89-1.28-1.03-1.43-.6-.61-.75-.5-1.27-1.03-.64-.66-.49-.93-1.27-1.98-.18-.24-.57-.77-1.19-1.35-.84-.79-1.13-.75-1.43-1.27-.35-.62-.39-1.44-.15-1.82-.16-.29-.3-.5-.48-.48-.26.03-.25.47-.79,1.35-.21.33-.2.25-1.03,1.35-.65.86-.66.91-.87,1.11-.19.18-.65.62-1.35.87-.67.25-1.96.47-2.3-.08-.29-.46.21-1.25.32-1.43.38-.62.68-.53,1.19-1.11.76-.87.43-1.41,1.19-2.14.53-.51.72-.28,1.19-.79.58-.63.69-1.4.79-2.14.1-.73.17-1.16-.08-1.35-.42-.32-1.54.22-1.61.79-.03.23.14.3.1.48-.12.55-2.09,1.13-3.49.4-.53-.27-.89-.69-1.75-.87-.16-.03-.43-.09-.79-.08-.7.02-.85.27-1.43.32-.16.01-1.09.08-1.45-.48-.22-.35-.17-.85.03-1.19.3-.51.8-.43,1.03-.95.15-.36-.05-.47.11-.79.26-.53.91-.42,1.16-.87.16-.29.06-.66-.16-1.19-.79-1.89-1.59-2.24-1.98-3.65-.1-.35-.24-.89-.16-1.59.14-1.16.79-1.59,1.19-2.62.39-1,.26-1.84.16-2.86-.06-.61-.18-1.71-.27-2.9-15.57,2.92-27.36,16.57-27.36,32.99s11.5,29.76,26.79,32.9c2.26-11.41,4.53-22.83,6.79-34.24.88,11.61,1.75,23.21,2.63,34.82,17.32-1.34,30.96-15.81,30.96-33.47,0-5.21-1.19-10.13-3.3-14.53ZM266.63,194.99c-1.09-.57-3.01-1.76-4.61-3.97-2.26-3.14-2.45-6.38-2.46-7.62,7.91-1.75,15.83-3.49,23.74-5.24-5.56,5.61-11.12,11.22-16.67,16.83Z"/>
    <path class="cls-12" d="M213.37,192.55c.1.07.38-.45,1.01-.71.72-.3,1.11.05,1.55-.3.35-.28.52-.81.35-1.01-.14-.17-.52-.08-1.07.06-.27.07-.56.14-.89.36-.13.08-.38.25-.6.54-.31.42-.48.98-.36,1.07Z"/>
    <path class="cls-12" d="M210.93,191.24c.5.76.78.7.95,1.13.25.63-.26,1,0,1.37.31.43,1.06.03,1.73.6.19.16.29.33.48.66.25.44.35.79.48,1.25.04.15.23.85.28,1.79,0,.11.1.31,0,.42-.1.11-.35.08-.51,0-.21-.1-.28-.28-.48-.66-.3-.58-.3-.43-.71-1.25-.17-.34-.2-.37-.3-.6-.18-.4-.17-.63-.36-.95-.04-.07-.06-.1-.09-.13-.12-.12-.24-.14-.4-.2-.18-.07-.26-.15-.34-.21-.43-.28-1.11.07-1.97-.18-.33-.1-.62-.18-.95-.42-.36-.25-.57-.54-.77-.83-.24-.34-.4-.56-.48-.89-.07-.3-.02-.45,0-.89.03-.76-.09-.79-.06-1.31.02-.36.08-1.34.71-1.72.35-.21.86-.23,1.01-.03.12.16-.08.32,0,.56.16.51,1.19.35,1.42.89.11.26-.09.36,0,.83.02.09.07.34.36.78Z"/>
  </g>
  <path class="cls-4" d="M412.24,156.33h110.3v81.05h-47.49v-48.35h17.72v29.6c1.83-1.7,4.08-4.13,6.14-7.4,2.53-4.01,3.83-7.78,4.53-10.5v-27.19l-40.61.34v63.49h-50.59v-48.35h19.1v27.36c1.6-.46,6.15-1.97,9.75-6.48,3.66-4.57,4.11-9.42,4.19-11.07v-24.78l-33.04.52v-18.24Z"/>
  <g>
    <path class="cls-4" d="M570.16,181.57v28.68l-14.28,21.31v7.99h11.4l19.73-29.82,11.82,8.44v-12.02l-11.95-8.46v-16.12h11.95v-26.97h-28.55c-7.95,0-14.4,6.45-14.4,14.4v12.57h14.28Z"/>
    <path class="cls-4" d="M657.05,250.72c.07,1.92.74,25.31.74,27.28v22.82c0,5.73-4.64,10.37-10.37,10.37h-6.83c-5.73,0-10.37-4.64-10.37-10.37v-22.82c0-5.73,4.64-10.37,10.37-10.37h6.44v-16.9h-51.97v17.88h11.17c4.75,0,8.6,3.85,8.6,8.6v23.53c0,9.15-7.42,16.57-16.57,16.57h0c-9.15,0-16.57-7.42-16.57-16.57v-50.01h-25.81v70.36c0,7.95,6.45,14.4,14.4,14.4h97.4c7.95,0,14.4-6.45,14.4-14.4l-.26-70.36h-24.77Z"/>
    <path class="cls-4" d="M644.75,239.55h37.33v-70.54c0-7.95-6.45-14.4-14.4-14.4h-22.93v84.95ZM666.45,190.4c0-2.53,2.05-4.58,4.58-4.58s4.58,2.05,4.58,4.58v36.49c0,2.53-2.05,4.58-4.58,4.58s-4.58-2.05-4.58-4.58v-36.49ZM656.03,185.85h0c2.53,0,4.58,2.05,4.58,4.58v36.49c0,2.53-2.05,4.58-4.58,4.58h0c-2.53,0-4.58-2.05-4.58-4.58v-36.49c0-2.53,2.05-4.58,4.58-4.58Z"/>
    <path class="cls-4" d="M638.08,197.74v-43.14h-32.58v84.95h21.59v-8.97h-11.15v-42.96c0-3.34,2.71-6.04,6.04-6.04h1.22c3.34,0,6.04,2.71,6.04,6.04v10.12h8.84Z"/>
  </g>
  <g>
    <g>
      <path class="cls-4" d="M66.28,351.94l5.7-3.41-3.23-5.41-20.77,12.41v-13.35h-31.07v6.3h24.77v7.32l-24.88-.02v17.92h31.18v-10.47l12.85-8.04,6.38,8.29v16.75h6.3v-18.9l-7.24-9.4ZM41.68,367.4h-18.58v-5.32l18.58.02v5.3Z"/>
      <polygon class="cls-4" points="96.21 348.8 87.46 355.17 87.46 343.14 81.16 343.14 81.16 374.03 87.46 374.03 87.46 362.96 102.51 352 102.51 343.14 96.21 343.14 96.21 348.8"/>
      <polygon class="cls-4" points="96.21 375.97 102.51 373.37 102.51 360.38 96.21 363.34 96.21 375.97"/>
      <polygon class="cls-4" points="96.21 385.79 102.51 385.79 102.51 378.68 96.21 380.9 96.21 385.79"/>
      <rect class="cls-4" x="110.87" y="335.48" width="6.3" height="37.9"/>
      <polygon class="cls-4" points="144.87 342.08 139.42 338.91 119.88 372.45 127.17 372.29 133.1 362.27 140.27 372.26 147.6 372.27 136.57 356.31 144.87 342.08"/>
      <polygon class="cls-4" points="171.84 365.23 176.14 360.34 172.38 355.45 175.8 352.49 175.8 336.82 169.49 339.04 169.49 349.62 161.24 357.1 161.24 339.04 154.57 339.04 154.57 372.71 161.24 372.71 161.24 365.44 167.61 359.59 171.84 365.23"/>
    </g>
    <polygon class="cls-4" points="6.73 351.52 6.73 362.02 0 356.77 6.73 351.52"/>
    <polygon class="cls-4" points="185.8 348.19 185.8 358.69 192.54 353.44 185.8 348.19"/>
  </g>
  <path class="cls-12" d="M311.69,364.1c-1.5-1.36-1.61-3.67-.25-5.17,1.36-1.5,3.67-1.61,5.17-.25l114.23,103.57h56.87l-108.25-98.14c-1.5-1.36-1.61-3.67-.25-5.17,1.36-1.5,3.67-1.61,5.17-.25l114.23,103.57h56.87l-108.25-98.14c-1.5-1.36-1.61-3.67-.25-5.17,1.36-1.5,3.67-1.61,5.17-.25l114.23,103.57h53.51l-135.56-123.33H214.84l140.72,123.33h64.38l-108.25-98.14Z"/>
  <g>
    <path class="cls-12" d="M715.43,163.33v116.08c.19-.22,3.44-3.9,6.88-3.26.78.15,2.25.42,2.79,1.49.35.69.2,1.5.74,1.77.29.14.42-.04,1.12,0,.39.02,1.2.08,1.49.56.11.18.1.36,0,1.02-.14.97-.21,1.45-.28,1.67-.36,1.21-1.14,2.04-1.77,2.7-.21.22-1.09,1.13-2.51,2.05-1.16.75-1.52.75-1.58,1.12-.15.88,1.97,1.23,2.88,3.35.29.67.54,1.7.56,1.77.23.95.19,1.25.47,1.95.31.78.48.72.74,1.4.38.97.32,1.85.28,2.51-.07.96-.11,1.62-.56,2.23-.49.67-.88.49-1.77,1.21-.39.32-1.71,1.39-1.67,2.88,0,.19.03,1.06.65,1.67,1.09,1.06,2.77.14,3.35.93.66.91-.99,2.91-.56,3.26.35.28,1.45-1.14,3.53-1.49.37-.06,1.89-.32,2.33.37.35.55-.13,1.53-.47,2.23-.09.2-.28.57-.56.93-1.26,1.62-2.98.99-3.91,2.33-.56.82-.04,1.22-.74,2.42-.7,1.19-1.56,1.36-1.49,1.77.12.68,2.6.85,6.05.93,2.78.06,3.22.05,5.11,0v-157.85h-21.11Z"/>
    <path class="cls-12" d="M740.17,314.76c.71-.34,1.39-.72,2.05-1.12,15.99-9.76,16.65-35.98,16.18-48.37.09-24.25.19-48.49.28-72.74-.1.1-2,1.9-4.19,1.28-1.9-.54-2.61-2.52-2.86-3.21-.67-1.84-.33-3.85-.21-4.6.2-1.22.49-1.69.28-2.58-.23-.98-.98-2.22-1.81-2.23-.53,0-.96.49-2.93,4.26-1.56,2.98-2.34,4.47-2.44,4.74-.58,1.59-.92,2.15-1.6,3-.92,1.15-1.99,1.83-2.74,2.23v119.34Z"/>
    <path class="cls-12" d="M763.06,194.77v82.04c2.83-.94,8.92-3.41,13.93-9.48,7.42-8.98,7.06-19.28,6.9-21.78v-38.69c-1.08.27-2.39.5-3.9.56-1.33.05-2.21.09-3.35-.19-.99-.24-1.06-.44-3.72-1.49-1.72-.68-2.02-.72-2.23-.74-1.49-.16-1.99.48-3.16.37-1.15-.1-2.4-.87-2.98-1.86-1.46-2.52,1.82-5.9.37-7.81-.49-.65-1.31-.85-1.86-.93Z"/>
  </g>
  <text class="cls-15" transform="translate(141.61 35.59)"><tspan class="cls-8" x="0" y="0">G</tspan><tspan class="cls-11" x="29.12" y="0">r</tspan><tspan class="cls-14" x="44.94" y="0">e</tspan><tspan x="67.14" y="0">y Re</tspan><tspan class="cls-9" x="145.63" y="0">b</tspan><tspan x="171.18" y="0">el </tspan><tspan class="cls-3" x="213.91" y="0">P</tspan><tspan x="238.23" y="0">ilot #21 </tspan><tspan class="cls-5" x="389.47" y="0">St</tspan><tspan class="cls-1" x="427.61" y="0">encils</tspan></text>
  <text class="cls-15" transform="translate(272.19 74.69)"><tspan x="0" y="0">(</tspan><tspan class="cls-7" x="13.35" y="0">S</tspan><tspan class="cls-2" x="36.61" y="0">c</tspan><tspan x="55.95" y="0">an Deri</tspan><tspan class="cls-13" x="191.76" y="0">v</tspan><tspan x="213.66" y="0">ed)</tspan></text>
  <g>
    <path d="M343.36,88.38c1.35-.2,2.96-.36,4.72-.36,3.19,0,5.46.74,6.96,2.14,1.53,1.4,2.42,3.39,2.42,6.17s-.87,5.1-2.47,6.68c-1.61,1.61-4.26,2.47-7.6,2.47-1.58,0-2.91-.08-4.03-.2v-16.92ZM345.58,103.58c.56.1,1.38.13,2.25.13,4.75,0,7.32-2.65,7.32-7.3.03-4.06-2.27-6.63-6.96-6.63-1.15,0-2.02.1-2.6.23v13.57Z"/>
    <path d="M360.27,96.85c0-1.45-.03-2.7-.1-3.85h1.96l.08,2.42h.1c.56-1.66,1.91-2.7,3.42-2.7.25,0,.43.03.64.08v2.12c-.23-.05-.46-.08-.77-.08-1.58,0-2.7,1.2-3.01,2.88-.05.31-.1.66-.1,1.05v6.58h-2.22v-8.5Z"/>
    <path d="M375.33,105.34l-.18-1.56h-.08c-.69.97-2.02,1.84-3.78,1.84-2.5,0-3.78-1.76-3.78-3.55,0-2.99,2.65-4.62,7.42-4.59v-.25c0-1.02-.28-2.86-2.81-2.86-1.15,0-2.35.36-3.21.92l-.51-1.48c1.02-.66,2.5-1.1,4.06-1.1,3.78,0,4.69,2.58,4.69,5.05v4.62c0,1.07.05,2.12.2,2.96h-2.04ZM374.99,99.04c-2.45-.05-5.23.38-5.23,2.78,0,1.45.97,2.14,2.12,2.14,1.61,0,2.63-1.02,2.98-2.07.08-.23.13-.48.13-.71v-2.14Z"/>
    <path d="M381.47,92.99l1.63,6.28c.36,1.38.69,2.65.92,3.93h.08c.28-1.25.69-2.58,1.1-3.9l2.02-6.3h1.89l1.91,6.17c.46,1.48.82,2.78,1.1,4.03h.08c.2-1.25.54-2.55.94-4l1.76-6.2h2.22l-3.98,12.35h-2.04l-1.89-5.89c-.43-1.38-.79-2.6-1.1-4.06h-.05c-.31,1.48-.69,2.76-1.12,4.08l-1.99,5.87h-2.04l-3.72-12.35h2.3Z"/>
    <path d="M399.36,96.34c0-1.28-.03-2.32-.1-3.34h1.99l.13,2.04h.05c.61-1.17,2.04-2.32,4.08-2.32,1.71,0,4.36,1.02,4.36,5.26v7.37h-2.25v-7.12c0-1.99-.74-3.65-2.86-3.65-1.48,0-2.63,1.05-3.01,2.3-.1.28-.15.66-.15,1.05v7.42h-2.25v-9.01Z"/>
    <path d="M419,88.38c.97-.2,2.5-.36,4.06-.36,2.22,0,3.65.38,4.72,1.25.89.66,1.43,1.68,1.43,3.04,0,1.66-1.1,3.11-2.91,3.78v.05c1.63.41,3.55,1.76,3.55,4.31,0,1.48-.59,2.6-1.45,3.44-1.2,1.1-3.14,1.61-5.95,1.61-1.53,0-2.7-.1-3.44-.2v-16.92ZM421.22,95.42h2.02c2.35,0,3.72-1.22,3.72-2.88,0-2.02-1.53-2.81-3.78-2.81-1.02,0-1.61.08-1.96.15v5.54ZM421.22,103.66c.43.08,1.07.1,1.86.1,2.3,0,4.41-.84,4.41-3.34,0-2.35-2.02-3.32-4.44-3.32h-1.84v6.56Z"/>
    <path d="M433.67,92.99l2.7,7.3c.28.82.59,1.79.79,2.53h.05c.23-.74.48-1.68.79-2.58l2.45-7.25h2.37l-3.37,8.8c-1.61,4.23-2.7,6.4-4.23,7.73-1.1.97-2.19,1.35-2.76,1.45l-.56-1.89c.56-.18,1.3-.54,1.96-1.1.61-.48,1.38-1.35,1.89-2.5.1-.23.18-.41.18-.54s-.05-.31-.15-.59l-4.57-11.38h2.45Z"/>
    <path d="M453.14,99.93l-1.79,5.41h-2.3l5.84-17.2h2.68l5.87,17.2h-2.37l-1.84-5.41h-6.1ZM458.77,98.2l-1.68-4.95c-.38-1.12-.64-2.14-.89-3.14h-.05c-.25,1.02-.54,2.07-.87,3.11l-1.68,4.97h5.18Z"/>
    <path d="M465.97,88.38c1.12-.23,2.73-.36,4.26-.36,2.37,0,3.9.43,4.98,1.4.87.77,1.35,1.94,1.35,3.27,0,2.27-1.43,3.78-3.24,4.39v.08c1.33.46,2.12,1.68,2.53,3.47.56,2.4.97,4.06,1.33,4.72h-2.3c-.28-.48-.66-1.96-1.15-4.11-.51-2.37-1.43-3.27-3.44-3.34h-2.09v7.45h-2.22v-16.97ZM468.19,96.21h2.27c2.37,0,3.88-1.3,3.88-3.27,0-2.22-1.61-3.19-3.96-3.21-1.07,0-1.84.1-2.19.21v6.28Z"/>
  </g>
</svg>